<?xml version="1.0" standalone="no"?><!DOCTYPE svg PUBLIC "-//W3C//DTD SVG 1.1//EN" "http://www.w3.org/Graphics/SVG/1.1/DTD/svg11.dtd"><svg class="icon" width="200px" height="200.00px" viewBox="0 0 1024 1024" version="1.1" xmlns="http://www.w3.org/2000/svg"><path fill="#333333" d="M1008.848831 31.181012L399.856872 701.100505a16.719649 16.719649 0 0 1-17.853184 4.534142L16.721866 584.062962a16.719649 16.719649 0 0 1-2.833839-30.605459L988.161808 5.109695a16.719649 16.719649 0 0 1 20.687023 26.071317z m9.351668-14.452578v871.688816a16.436265 16.436265 0 0 1-21.253791 15.869497l-525.960482-158.694973a16.436265 16.436265 0 0 1-8.501516-25.787933L988.445192 6.809998a16.436265 16.436265 0 0 1 29.755307 9.918436z m-674.453635 729.996875l-20.403639-6.517829 139.424869 274.032212a16.436265 16.436265 0 0 0 30.038691 0L571.870888 832.590625a16.436265 16.436265 0 0 0-10.485204-22.387326l-96.067135-28.338388a16.436265 16.436265 0 0 0-20.970407 17.5698l9.351668 89.549306a16.436265 16.436265 0 0 1-31.172227 9.351668l-77.647183-152.177143z" /></svg>