<?xml version="1.0" standalone="no"?><!DOCTYPE svg PUBLIC "-//W3C//DTD SVG 1.1//EN" "http://www.w3.org/Graphics/SVG/1.1/DTD/svg11.dtd"><svg class="icon" width="200px" height="200.00px" viewBox="0 0 1024 1024" version="1.1" xmlns="http://www.w3.org/2000/svg"><path fill="#333333" d="M915.222145 130.391696h-137.4782v165.824221H244.838754V130.391696H108.777855a43.936332 43.936332 0 0 0-43.936333 43.936332v805.73564a43.936332 43.936332 0 0 0 43.936333 43.936332H915.222145a43.936332 43.936332 0 0 0 43.936333-43.936332V174.328028a43.936332 43.936332 0 0 0-43.936333-43.936332zM658.690657 671.800692V708.650519h-113.384083v39.684429h113.384083v36.141177h-113.384083v94.250519h-67.321799v-94.95917h-113.384083v-36.141176h113.384083V708.650519h-113.384083v-36.849827H461.685813l-138.186851-212.595156h78.660208L463.811765 566.920415c20.550865 39.684429 29.763322 56.692042 47.479584 88.581315 17.716263-32.597924 27.63737-50.314187 47.479585-88.581315l60.943945-111.258131H702.62699L560.896886 671.800692zM653.021453 82.20346V55.983391A55.983391 55.983391 0 0 0 597.746713 0h-170.076125a55.983391 55.983391 0 0 0-55.983391 55.983391v26.220069h-66.613149v164.406921h412.434603V82.20346z m-141.730104 107.006229a66.613149 66.613149 0 1 1 66.613149-66.613149 66.613149 66.613149 0 0 1-65.195847 67.321799z" /></svg>