<?xml version="1.0" standalone="no"?><!DOCTYPE svg PUBLIC "-//W3C//DTD SVG 1.1//EN" "http://www.w3.org/Graphics/SVG/1.1/DTD/svg11.dtd"><svg class="icon" width="200px" height="200.00px" viewBox="0 0 1024 1024" version="1.1" xmlns="http://www.w3.org/2000/svg"><path fill="#333333" d="M22.453156 420.486379a51.0299 51.0299 0 0 0-17.690365 37.421927 48.988704 48.988704 0 0 0 48.988704 48.988704h98.657807v467.433887a48.988704 48.988704 0 0 0 48.988705 48.988704h163.295681a48.988704 48.988704 0 0 0 48.308305-48.308305v-197.315615h197.315615v196.635216a48.988704 48.988704 0 0 0 48.988704 48.988704H821.241196a48.988704 48.988704 0 0 0 48.988704-48.988704V507.577409h98.657808a48.988704 48.988704 0 0 0 48.988704-48.988705 48.308306 48.308306 0 0 0-19.051163-37.421927C832.127575 278.283056 512.340199 0 512.340199 0S192.552824 278.283056 22.453156 420.486379z" /></svg>