<?xml version="1.0" standalone="no"?><!DOCTYPE svg PUBLIC "-//W3C//DTD SVG 1.1//EN" "http://www.w3.org/Graphics/SVG/1.1/DTD/svg11.dtd"><svg class="icon" width="200px" height="200.00px" viewBox="0 0 1024 1024" version="1.1" xmlns="http://www.w3.org/2000/svg"><path fill="#333333" d="M857.403221 147.818706h-16.364684v80.482054h16.364684a31.924548 31.924548 0 0 1 31.924548 31.924548v164.18339c0 17.169505-17.169505 20.925334-31.924548 20.925334H414.483651a49.6306 49.6306 0 0 0-49.6306 49.094053v206.302332h-20.388787a53.654703 53.654703 0 0 0-57.142258 52.313335v217.033272a55.800891 55.800891 0 0 0 57.142258 53.654702h125.015457a55.800891 55.800891 0 0 0 57.678806-53.654702v-217.301546a55.264344 55.264344 0 0 0-57.410532-53.654703h-20.120514V552.643437a26.827351 26.827351 0 0 1 26.827352-26.827351h383.631124a122.600996 122.600996 0 0 0 76.189677-24.41289 96.041918 96.041918 0 0 0 36.753472-76.994498V260.493581a112.943149 112.943149 0 0 0-113.479697-112.406602h-1.877914zM822.795938 298.856694V71.629028A70.019387 70.019387 0 0 0 754.654466 0H120.187607A70.28766 70.28766 0 0 0 50.973041 71.629028v227.227666a70.28766 70.28766 0 0 0 69.214566 71.360754h634.198585a70.019387 70.019387 0 0 0 68.67802-71.360754z" /></svg>